:SAMPLES-PER-SECOND 30
:FULLY-SPECIFIED
:DEGREES
199
root  -9.31707 39.5884 40.7941 -0.662677 -9.90797 -2.0939
RightUpLeg  -11.0602 0.390875 6.6562
RightLeg  14.6182 8.62811 2.41263
RightFoot  -10.4274 -0.148357 7.25003
RightToes  -5.82073e-011 -3.18055e-015 -2.98177e-016
Spine  7.91885 -0.308733 6.97851
Spine1  -0.127735 0.215096 0.107958
HEad  -16.6055 15.3357 -6.68463
LeftShoulder1  -3.88251e-019 9.70628e-020 -3.87848e-018
LeftArm  -11.2851 47.2747 -82.9113
LeftForeArm  4.38529 -26.872 4.74482
LeftHand  -0.271095 -8.63222 2.62456
RightShoulder  7.51436 10.4425 35.6569
RightArm  29.2105 -34.2802 29.6124
RightForeArm  -5.0962 23.054 -12.2009
RightHand  -1.1462 4.0164 -13.9464
LeftUpLeg  -9.28031 5.04313 -1.44749
LeftLeg  20.3771 4.17047 8.27725
LeftFoot  -12.476 -0.0174573 -2.69818
LeftToes  5.79026e-011 9.70705e-012 -3.73859e-011
200
root  -9.22823 39.6739 40.6187 -0.793866 -9.25396 -1.52205
RightUpLeg  -11.2945 -0.24858 5.95223
RightLeg  14.491 8.70828 2.32601
RightFoot  -9.83034 -0.188127 7.26429
RightToes  -5.82073e-011 -3.18055e-015 -2.98177e-016
Spine  8.1127 -0.315151 4.91383
Spine1  0.670467 -0.0281317 0.659073
HEad  -17.833 14.8713 -6.03513
LeftShoulder1  -3.88251e-019 9.70628e-020 -3.87848e-018
LeftArm  -33.9524 50.3648 -80.9333
LeftForeArm  11.844 -17.4166 -0.199452
LeftHand  -0.213201 -5.52244 2.79727
RightShoulder  7.96413 10.6928 37.345
RightArm  31.5346 -38.6008 22.3196
RightForeArm  -14.9064 22.2778 -11.2353
RightHand  -0.819174 2.46519 -12.0828
LeftUpLeg  -8.97716 1.72633 -2.44317
LeftLeg  19.1342 7.24689 8.98355
LeftFoot  -11.4101 0.00371573 -2.29351
LeftToes  5.79026e-011 9.70705e-012 -3.73859e-011
201
root  -9.12876 39.6691 40.4124 -1.27472 -8.46434 -0.486236
RightUpLeg  -12.0502 -3.44246 5.15205
RightLeg  15.8943 11.2413 2.16124
RightFoot  -9.46772 -0.183205 6.34609
RightToes  -5.82073e-011 -3.18055e-015 -2.98177e-016
Spine  8.91907 -0.400768 2.88083
Spine1  1.32888 -0.230916 0.691652
HEad  -19.5888 14.2369 -5.47336
LeftShoulder1  -3.88251e-019 9.70628e-020 -3.87848e-018
LeftArm  -42.1688 53.4839 -78.1465
LeftForeArm  -6.54191 -9.28958 1.74387
LeftHand  -0.649667 -2.33369 10.289
RightShoulder  8.31096 10.8931 38.5876
RightArm  30.1376 -44.1084 15.236
RightForeArm  -28.9474 22.6657 -10.8138
RightHand  -0.769688 0.0838722 -15.8044
LeftUpLeg  -8.79403 -0.159802 -3.75395
LeftLeg  18.7013 8.63324 9.29702
LeftFoot  -10.8412 0.0241686 -2.71915
LeftToes  5.79026e-011 9.70705e-012 -3.73859e-011
202
root  -9.0172 39.5904 40.2215 -2.27469 -7.83198 0.946034
RightUpLeg  -12.9691 -10.0199 4.49294
RightLeg  18.6868 17.4706 2.2544
RightFoot  -9.91812 -0.128749 5.37347
RightToes  -5.82073e-011 -3.18055e-015 -2.98177e-016
Spine  10.3937 -0.466867 0.804574
Spine1  1.65701 -0.335946 0.236766
HEad  -21.4869 13.8782 -4.92702
LeftShoulder1  -3.88251e-019 9.70628e-020 -3.87848e-018
LeftArm  -43.9285 57.131 -73.4646
LeftForeArm  -32.7388 -4.55911 3.15825
LeftHand  -0.8011 -0.0298503 18.7428
RightShoulder  8.36791 10.9305 38.7758
RightArm  30.1264 -49.9388 8.49642
RightForeArm  -36.6543 23.6226 -11.1321
RightHand  -0.902541 -1.08523 -23.5073
LeftUpLeg  -8.04985 -0.000336368 -5.4029
LeftLeg  18.3105 8.15686 8.96248
LeftFoot  -10.775 0.0345467 -3.1524
LeftToes  5.79026e-011 9.70705e-012 -3.73859e-011
203
root  -8.88047 39.4611 40.0454 -3.43541 -7.55244 2.50957
RightUpLeg  -14.262 -16.35 3.54406
RightLeg  22.5188 23.4918 2.71952
RightFoot  -11.4442 -0.0580289 6.07535
RightToes  -5.82073e-011 -3.18055e-015 -2.98177e-016
Spine  11.8665 -0.479989 -1.49604
Spine1  2.1061 -0.474365 -0.201474
HEad  -23.4082 14.0788 -4.38493
LeftShoulder1  -3.88251e-019 9.70628e-020 -3.87848e-018
LeftArm  -41.107 61.2629 -66.6832
LeftForeArm  -56.0796 -3.13005 4.22106
LeftHand  -0.344462 3.24652 22.6717
RightShoulder  8.20766 10.8501 38.1819
RightArm  33.0895 -53.9551 2.66597
RightForeArm  -34.4892 23.3046 -10.9742
RightHand  -0.814525 -2.05473 -26.9716
LeftUpLeg  -7.20939 1.31132 -7.13208
LeftLeg  18.2298 7.14151 8.5749
LeftFoot  -11.258 0.0264339 -3.55824
LeftToes  5.79026e-011 9.70705e-012 -3.73859e-011
204
root  -8.72756 39.2852 39.8796 -4.14875 -7.41107 3.81655
RightUpLeg  -15.9122 -17.1948 1.54829
RightLeg  26.3693 22.8374 3.0001
RightFoot  -13.7463 0.0814556 8.39223
RightToes  -5.82073e-011 -3.18055e-015 -2.98177e-016
Spine  12.6689 -0.487583 -3.69474
Spine1  2.83432 -0.742012 -0.154588
HEad  -25.2444 14.4674 -3.99108
LeftShoulder1  -3.88251e-019 9.70628e-020 -3.87848e-018
LeftArm  -34.6013 65.3972 -57.4954
LeftForeArm  -67.3971 -3.63464 4.94901
LeftHand  0.217889 6.16399 21.9254
RightShoulder  8.04594 10.7616 37.5928
RightArm  34.2574 -55.2566 -1.66067
RightForeArm  -23.7446 21.0647 -9.24127
RightHand  -0.589547 -2.53688 -22.9677
LeftUpLeg  -7.29586 2.2455 -8.63242
LeftLeg  19.0971 6.53675 8.71288
LeftFoot  -11.8576 0.00925557 -3.80616
LeftToes  5.79026e-011 9.70705e-012 -3.73859e-011
205
root  -8.58592 39.1091 39.7528 -4.26761 -7.23023 4.49437
RightUpLeg  -17.7047 -17.2038 0.245782
RightLeg  29.2203 19.7698 1.6061
RightFoot  -15.9709 0.281393 9.84429
RightToes  -5.82073e-011 -3.18055e-015 -2.98177e-016
Spine  12.7845 -0.466369 -4.75497
Spine1  3.52272 -0.862323 -0.0503102
HEad  -26.6673 14.292 -3.66691
LeftShoulder1  -3.88251e-019 9.70628e-020 -3.87848e-018
LeftArm  -24.4807 68.497 -45.6424
LeftForeArm  -63.2224 -4.38978 4.80799
LeftHand  0.188109 6.08833 19.0432
RightShoulder  8.00621 10.736 37.4552
RightArm  29.0463 -55.1775 -4.86179
RightForeArm  -7.24233 18.0411 -5.96649
RightHand  -0.656288 -0.831291 -16.3612
LeftUpLeg  -8.24744 2.06931 -9.60972
LeftLeg  20.5493 6.50996 9.2916
LeftFoot  -12.0316 -0.000227953 -3.49552
LeftToes  5.79026e-011 9.70705e-012 -3.73859e-011
206
root  -8.4751 39.019 39.6944 -4.19218 -7.26879 4.45736
RightUpLeg  -18.7643 -16.1989 -0.207896
RightLeg  30.9647 15.4512 -1.10164
RightFoot  -16.8861 0.330877 8.67668
RightToes  -5.82073e-011 -3.18055e-015 -2.98177e-016
Spine  12.605 -0.270726 -4.08812
Spine1  3.94459 -0.44595 -0.723704
HEad  -27.316 13.3598 -3.17748
LeftShoulder1  -3.88251e-019 9.70628e-020 -3.87848e-018
LeftArm  -12.6744 69.8023 -32.9814
LeftForeArm  -50.2526 -5.03125 4.01991
LeftHand  -0.291554 3.2181 18.524
RightShoulder  8.04087 10.7508 37.5921
RightArm  22.7754 -55.4716 -7.05162
RightForeArm  6.61221 14.7676 -4.36476
RightHand  -0.730188 1.06234 -12.8375
LeftUpLeg  -8.98678 1.47517 -9.83771
LeftLeg  21.5374 6.86143 9.84239
LeftFoot  -11.8924 -0.0015978 -2.90706
LeftToes  5.79026e-011 9.70705e-012 -3.73859e-011
207
root  -8.40317 39.0368 39.6974 -4.28598 -7.73898 4.05436
RightUpLeg  -18.5572 -14.2424 -0.280445
RightLeg  31.9435 11.9485 -3.55179
RightFoot  -15.6911 0.176857 5.73409
RightToes  -5.82073e-011 -3.18055e-015 -2.98177e-016
Spine  12.3754 0.160102 -2.66146
Spine1  4.1387 0.39375 -1.9791
HEad  -26.9442 12.2376 -2.66209
LeftShoulder1  -3.88251e-019 9.70628e-020 -3.87848e-018
LeftArm  -2.62315 70.1045 -22.693
LeftForeArm  -37.5675 -6.31026 3.25351
LeftHand  -0.74184 0.853989 20.8278
RightShoulder  8.02523 10.7428 37.5334
RightArm  18.8284 -56.268 -7.54634
RightForeArm  14.8885 11.724 -5.06762
RightHand  -0.729266 1.49457 -12.0964
LeftUpLeg  -8.90706 1.24859 -9.5331
LeftLeg  21.6724 7.43624 10.1388
LeftFoot  -11.8702 -0.00199774 -2.81933
LeftToes  5.79026e-011 9.70705e-012 -3.73859e-011
208
root  -8.37228 39.11 39.7387 -4.47877 -8.26517 3.63859
RightUpLeg  -17.0137 -12.0904 -0.410554
RightLeg  31.5545 10.4922 -4.52497
RightFoot  -13.048 0.0337726 2.95929
RightToes  -5.82073e-011 -3.18055e-015 -2.98177e-016
Spine  11.9144 0.652012 -1.92126
Spine1  4.29796 1.03546 -2.39817
HEad  -25.4719 11.4641 -2.51773
LeftShoulder1  -3.88251e-019 9.70628e-020 -3.87848e-018
LeftArm  5.07052 70.7621 -15.3014
LeftForeArm  -29.35 -8.23631 2.70542
LeftHand  -1.03471 -0.465826 22.0613
RightShoulder  7.8991 10.6866 37.0375
RightArm  15.7549 -56.6786 -6.30064
RightForeArm  18.6592 9.09239 -6.34114
RightHand  -0.647989 1.07309 -11.424
LeftUpLeg  -8.34 1.23114 -9.10528
LeftLeg  21.2608 8.00615 10.194
LeftFoot  -11.8339 0.00320309 -3.17278
LeftToes  5.79026e-011 9.70705e-012 -3.73859e-011
209
root  -8.38513 39.2342 39.8097 -4.49302 -8.20075 3.22597
RightUpLeg  -14.258 -10.8063 -0.528102
RightLeg  28.5932 10.5062 -4.13261
RightFoot  -10.6875 -0.00223665 1.36516
RightToes  -5.82073e-011 -3.18055e-015 -2.98177e-016
Spine  10.8613 0.93909 -2.15871
Spine1  4.68202 1.04487 -1.06287
HEad  -23.1896 10.9946 -2.6673
LeftShoulder1  -3.88251e-019 9.70628e-020 -3.87848e-018
LeftArm  10.8055 71.7748 -10.2297
LeftForeArm  -27.437 -9.71721 2.14628
LeftHand  -1.14406 -1.44725 20.6359
RightShoulder  7.75722 10.6238 36.4742
RightArm  13.3244 -56.2691 -4.6263
RightForeArm  18.6113 7.44593 -6.86519
RightHand  -0.552689 0.508136 -10.6678
LeftUpLeg  -7.62143 0.827591 -8.68211
LeftLeg  20.1744 8.37033 9.85939
LeftFoot  -11.1539 0.0210307 -3.06601
LeftToes  5.79026e-011 9.70705e-012 -3.73859e-011
210
root  -8.44565 39.4184 39.9066 -4.2304 -7.46963 2.76886
RightUpLeg  -11.0249 -10.9007 -0.354048
RightLeg  23.5332 10.8958 -3.35429
RightFoot  -9.64153 0.00552329 0.648586
RightToes  -5.82073e-011 -3.18055e-015 -2.98177e-016
Spine  9.23167 0.925561 -2.68001
Spine1  5.32463 0.621299 1.10255
HEad  -20.7833 10.5463 -2.50376
LeftShoulder1  -3.88251e-019 9.70628e-020 -3.87848e-018
LeftArm  13.0148 72.1891 -8.49041
LeftForeArm  -29.6445 -9.79532 1.57188
LeftHand  -0.923578 -1.11267 17.5662
RightShoulder  7.75995 10.612 36.5136
RightArm  12.4671 -55.285 -3.49679
RightForeArm  16.2843 7.48546 -6.53314
RightHand  -0.574532 0.343446 -11.3568
LeftUpLeg  -6.81676 -0.0644633 -8.20661
LeftLeg  18.2938 8.58637 9.09979
LeftFoot  -9.79396 0.0392259 -2.2923
LeftToes  5.79026e-011 9.70705e-012 -3.73859e-011
211
root  -8.53217 39.6007 39.9978 -3.75553 -6.80755 2.26806
RightUpLeg  -8.67085 -10.8101 0.121619
RightLeg  18.9382 10.3246 -2.73763
RightFoot  -9.30787 0.0192762 0.182177
RightToes  -5.82073e-011 -3.18055e-015 -2.98177e-016
Spine  7.48118 0.78527 -2.62258
Spine1  5.95266 0.317992 2.35713
HEad  -18.8996 10.1073 -1.78185
LeftShoulder1  -3.88251e-019 9.70628e-020 -3.87848e-018
LeftArm  10.2621 71.7871 -10.9531
LeftForeArm  -30.8811 -8.70126 1.46158
LeftHand  -0.599512 0.350663 15.1292
RightShoulder  7.92947 10.6657 37.2351
RightArm  12.4488 -54.1275 -2.27785
RightForeArm  13.7617 9.21731 -6.06937
RightHand  -0.752111 0.980323 -13.4272
LeftUpLeg  -6.23574 -1.05925 -7.60538
LeftLeg  16.4173 8.99979 8.35088
LeftFoot  -8.53634 0.0434927 -1.66055
LeftToes  5.79026e-011 9.70705e-012 -3.73859e-011
